<?xml version="1.0" encoding="UTF-8"?>
<svg width="120" height="40" viewBox="0 0 120 40" fill="none" xmlns="http://www.w3.org/2000/svg">
  <!-- Apple Health logo -->
  <g fill="#FF6B6B">
    <!-- Heart icon -->
    <path d="M20 28c-6-5.5-10-9.5-10-14 0-3.5 2.5-6 6-6 2 0 3.5 1 4 2.5C20.5 9 22 8 24 8c3.5 0 6 2.5 6 6 0 4.5-4 8.5-10 14z"/>
  </g>
  
  <!-- Health text -->
  <g fill="#1D1D1F">
    <!-- H -->
    <path d="M42 12h2v4h4v-4h2v12h-2v-6h-4v6h-2V12z"/>
    
    <!-- e -->
    <path d="M56 16c1.7 0 3 1.3 3 3s-1.3 3-3 3c-0.8 0-1.5-0.3-2-0.8V24h-1.5v-8H54v0.8c0.5-0.5 1.2-0.8 2-0.8zm0 4.5c0.8 0 1.5-0.7 1.5-1.5s-0.7-1.5-1.5-1.5-1.5 0.7-1.5 1.5 0.7 1.5 1.5 1.5z"/>
    
    <!-- a -->
    <path d="M64 16c1.7 0 3 1.3 3 3v3h-1.5v-0.8c-0.5 0.5-1.2 0.8-2 0.8-1.7 0-3-1.3-3-3s1.3-3 3-3zm0 4.5c0.8 0 1.5-0.7 1.5-1.5s-0.7-1.5-1.5-1.5-1.5 0.7-1.5 1.5 0.7 1.5 1.5 1.5z"/>
    
    <!-- l -->
    <path d="M70 12h1.5v10H70V12z"/>
    
    <!-- t -->
    <path d="M75 14v1.5h2V17h-2v3.5c0 0.3 0.2 0.5 0.5 0.5H76V22h-1c-1.1 0-2-0.9-2-2v-3.5h-1V15.5h1V14h1.5z"/>
    
    <!-- h -->
    <path d="M80 12h1.5v4.2c0.5-0.5 1.2-0.7 2-0.7 1.7 0 3 1.3 3 3V22h-1.5v-3.5c0-0.8-0.7-1.5-1.5-1.5s-1.5 0.7-1.5 1.5V22H80V12z"/>
  </g>
</svg>
