<?xml version="1.0" encoding="UTF-8"?>
<svg width="120" height="40" viewBox="0 0 120 40" fill="none" xmlns="http://www.w3.org/2000/svg">
  <!-- Garmin Connect logo -->
  <g fill="#007CC3">
    <!-- Connect icon/symbol -->
    <circle cx="20" cy="20" r="8" fill="none" stroke="#007CC3" stroke-width="2"/>
    <circle cx="20" cy="20" r="3" fill="#007CC3"/>
    <path d="M28 12l2 2-2 2-2-2 2-2z" fill="#007CC3"/>
    <path d="M28 26l2 2-2 2-2-2 2-2z" fill="#007CC3"/>
    <path d="M12 28l2-2 2 2-2 2-2-2z" fill="#007CC3"/>
    <path d="M12 12l2-2 2 2-2 2-2-2z" fill="#007CC3"/>
  </g>
  
  <!-- Garmin Connect text -->
  <g fill="#333333">
    <!-- Connect -->
    <path d="M45 16c1.7 0 3 1.3 3 3s-1.3 3-3 3c-0.8 0-1.5-0.3-2-0.8V24h-1.5v-8H43v0.8c0.5-0.5 1.2-0.8 2-0.8zm0 4.5c0.8 0 1.5-0.7 1.5-1.5s-0.7-1.5-1.5-1.5-1.5 0.7-1.5 1.5 0.7 1.5 1.5 1.5z"/>
    
    <path d="M53 16c1.7 0 3 1.3 3 3v3h-1.5v-3c0-0.8-0.7-1.5-1.5-1.5s-1.5 0.7-1.5 1.5v3H50v-6h1.5v0.5c0.5-0.3 1-0.5 1.5-0.5z"/>
    
    <path d="M60 16c1.7 0 3 1.3 3 3v3h-1.5v-3c0-0.8-0.7-1.5-1.5-1.5s-1.5 0.7-1.5 1.5v3H57v-6h1.5v0.5c0.5-0.3 1-0.5 1.5-0.5z"/>
    
    <path d="M68 16c1.7 0 3 1.3 3 3s-1.3 3-3 3c-0.8 0-1.5-0.3-2-0.8V24h-1.5v-8H66v0.8c0.5-0.5 1.2-0.8 2-0.8zm0 4.5c0.8 0 1.5-0.7 1.5-1.5s-0.7-1.5-1.5-1.5-1.5 0.7-1.5 1.5 0.7 1.5 1.5 1.5z"/>
    
    <path d="M75 16c1.7 0 3 1.3 3 3s-1.3 3-3 3c-1.7 0-3-1.3-3-3s1.3-3 3-3zm0 4.5c0.8 0 1.5-0.7 1.5-1.5s-0.7-1.5-1.5-1.5-1.5 0.7-1.5 1.5 0.7 1.5 1.5 1.5z"/>
    
    <path d="M81 16c1.7 0 3 1.3 3 3v3h-1.5v-3c0-0.8-0.7-1.5-1.5-1.5s-1.5 0.7-1.5 1.5v3H78v-6h1.5v0.5c0.5-0.3 1-0.5 1.5-0.5z"/>
    
    <path d="M88 14v1.5h2V17h-2v3.5c0 0.3 0.2 0.5 0.5 0.5H89V22h-1c-1.1 0-2-0.9-2-2v-3.5h-1V15.5h1V14h1.5z"/>
  </g>
</svg>
