<?xml version="1.0" encoding="UTF-8"?>
<svg width="120" height="40" viewBox="0 0 120 40" fill="none" xmlns="http://www.w3.org/2000/svg">
  <!-- Strava wordmark logo -->
  <g fill="#FC4C02">
    <!-- S -->
    <path d="M8.5 12.8c0-1.2 0.9-2.1 2.1-2.1s2.1 0.9 2.1 2.1c0 1.2-0.9 2.1-2.1 2.1s-2.1-0.9-2.1-2.1zm0.4 3.8h3.4l0.9 4.2c0.1 0.5 0.2 1 0.2 1.5 0 1.3-1 2.3-2.3 2.3-1.3 0-2.3-1-2.3-2.3 0-0.5 0.1-1 0.2-1.5l0.9-4.2z"/>
    
    <!-- T -->
    <path d="M20.4 10.7h-5.6v2h1.8v11.5h2v-11.5h1.8v-2z"/>
    
    <!-- R -->
    <path d="M26.8 10.7h-3.4v13.5h2v-5.4h1.4c1.7 0 3.1-1.4 3.1-3.1v-1.9c0-1.7-1.4-3.1-3.1-3.1zm1.1 5c0 0.6-0.5 1.1-1.1 1.1h-1.4v-3.1h1.4c0.6 0 1.1 0.5 1.1 1.1v0.9z"/>
    
    <!-- A -->
    <path d="M37.2 10.7l-3.6 13.5h2.1l0.7-2.6h3.6l0.7 2.6h2.1l-3.6-13.5h-2zm0 8.9l1.3-4.9 1.3 4.9h-2.6z"/>
    
    <!-- V -->
    <path d="M50.4 10.7l-3.1 13.5h2l2.1-9.6 2.1 9.6h2l-3.1-13.5h-2z"/>
    
    <!-- A -->
    <path d="M63.2 10.7l-3.6 13.5h2.1l0.7-2.6h3.6l0.7 2.6h2.1l-3.6-13.5h-2zm0 8.9l1.3-4.9 1.3 4.9h-2.6z"/>
  </g>
  
  <!-- Strava mountain peak icon -->
  <g fill="#FC4C02">
    <path d="M82 20l6-12h-4l-2 4-2-4h-4l6 12z"/>
    <path d="M88 20l-2-4h-4l2 4h4z"/>
  </g>
</svg>
